# xmcd
#
# Track frame offsets: 
#        150
#        16795
#        30031
#        43221
#        60908
#        80974
#        95720
#        113879
#        134920
#        153244
#        172636
#        191212
#        206460
#
# Disc length: 3181 seconds
#
# Revision: 0
# Processed by: cddbd v1.5.2PL0 Copyright (c) Steve Scherf et al.
# Submitted via: ExactAudioCopyFreeDBPlugin 1.0
#
DISCID=a60c6b0d
DTITLE=The Funk `N` Blues Kitchen - The Funk `N` Blues Kitchen
DYEAR=2014
DGENRE=Funk
TTITLE0=Easy
TTITLE1=The Funky Man
TTITLE2=Coracon
TTITLE3=When The Party Comes Into The Kitchen
TTITLE4=Lorelei
TTITLE5=Ragga
TTITLE6=Too Much Singing
TTITLE7=That Would Be Blues
TTITLE8=Weekend Brass
TTITLE9=Herbert
TTITLE10=Up To Me
TTITLE11=Mädchen 2000
TTITLE12=Farewell
EXTD=
EXTT0=
EXTT1=
EXTT2=
EXTT3=
EXTT4=
EXTT5=
EXTT6=
EXTT7=
EXTT8=
EXTT9=
EXTT10=
EXTT11=
EXTT12=
PLAYORDER=
